<svg width="217" height="189" viewBox="0 0 217 189" fill="none" xmlns="http://www.w3.org/2000/svg">
<path d="M120.877 122.302C111.973 116.803 97.5383 116.803 88.6342 122.302C81.4031 126.775 80.0503 133.491 84.5633 138.809C84.8342 139.128 84.6978 139.648 84.3397 139.865V139.865L56.2267 157.242C55.0343 157.979 55.0343 159.177 56.2267 159.913L57.991 161.003C58.6533 161.363 59.3893 161.54 60.1319 161.517C60.8745 161.495 61.5999 161.273 62.2419 160.873L88.4161 142.526V142.526C88.6051 142.394 88.8545 142.357 89.0536 142.474C97.984 147.722 112.094 147.64 120.872 142.225C129.762 136.743 129.805 127.805 120.877 122.302Z" fill="#E6E6E6"/>
<path d="M183.462 102.295L147.633 124.48C147.186 124.723 146.692 124.85 146.191 124.85C145.69 124.85 145.196 124.723 144.749 124.48L82.4203 85.9659C81.6254 85.4783 81.6254 84.6795 82.4203 84.1867L118.25 62.0015C118.697 61.7586 119.191 61.6321 119.692 61.6321C120.193 61.6321 120.687 61.7586 121.134 62.0015L183.462 100.516C184.257 101.003 184.257 101.802 183.462 102.295Z" fill="#E6E6E6"/>
<path d="M23.9112 144.253L14.3286 138.33C13.1701 137.614 13.1701 136.452 14.3286 135.736L81.0098 94.535C81.6602 94.1818 82.3792 93.9978 83.1086 93.9978C83.8379 93.9978 84.557 94.1818 85.2074 94.535L94.7949 100.459C95.9533 101.174 95.9533 102.336 94.7949 103.052L28.1088 144.253C27.4584 144.606 26.7393 144.791 26.01 144.791C25.2807 144.791 24.5616 144.606 23.9112 144.253Z" fill="#E6E6E6"/>
<path d="M183.559 156.028C193.338 156.028 201.266 151.393 201.266 145.675C201.266 139.957 193.338 135.321 183.559 135.321C173.78 135.321 165.853 139.957 165.853 145.675C165.853 151.393 173.78 156.028 183.559 156.028Z" fill="#F9E89C"/>
<path d="M182.154 95.1109L147.536 116.549C147.104 116.782 146.626 116.903 146.142 116.903C145.659 116.903 145.181 116.782 144.749 116.549L84.4998 79.3318C83.7291 78.8598 83.7291 78.0869 84.4998 77.6148L119.142 56.1714C119.573 55.9388 120.05 55.8176 120.533 55.8176C121.016 55.8176 121.493 55.9388 121.924 56.1714L182.154 93.3888C182.9 93.866 182.9 94.6337 182.154 95.1109Z" fill="#37474F"/>
<path d="M163.633 104.941C163.032 105.267 162.368 105.437 161.694 105.437C161.02 105.437 160.356 105.267 159.755 104.941C158.689 104.282 158.689 103.213 159.755 102.554C160.355 102.225 161.02 102.054 161.694 102.054C162.369 102.054 163.033 102.225 163.633 102.554C164.704 103.213 164.704 104.282 163.633 104.941Z" fill="#263238"/>
<path d="M147.512 116.549L182.154 95.1108C182.842 94.6855 182.915 94.0215 182.372 93.5547C182.716 93.8461 182.999 94.2121 183.202 94.6286C183.405 95.0452 183.524 95.5029 183.55 95.9719V97.3724C183.525 97.8919 183.386 98.3979 183.143 98.8487C182.9 99.2995 182.561 99.6823 182.154 99.9659L147.536 121.404V121.404C146.835 121.804 146.145 121.116 146.145 120.308V118.356C146.145 117.564 146.828 116.948 147.512 116.549V116.549Z" fill="#455A64"/>
<path d="M84.4998 84.1765C84.0931 83.8923 83.7551 83.5091 83.5133 83.0584C83.2715 82.6076 83.1329 82.102 83.1086 81.5829V80.1824C83.1342 79.7125 83.2523 79.2538 83.4553 78.8363C83.6583 78.4188 83.9416 78.052 84.2865 77.76C83.7436 78.2372 83.8018 78.896 84.4998 79.3161L144.725 116.534V116.534C145.421 116.93 146.121 117.549 146.121 118.35V120.272C146.121 121.083 145.429 121.774 144.725 121.373V121.373L84.4998 84.1765Z" fill="#263238"/>
<path d="M141.729 112.057L174.104 92.0007C174.29 91.8856 174.517 91.8105 174.64 91.6298V91.6298C174.703 91.5366 174.738 91.4242 174.738 91.3088C174.738 91.1933 174.703 91.0809 174.64 90.9877V90.9877C174.517 90.8071 174.29 90.732 174.104 90.6169L126.117 60.9124C125.858 60.7716 125.573 60.6982 125.283 60.6982C124.993 60.6982 124.708 60.7716 124.449 60.9124L92.0597 80.9689C91.8738 81.084 91.6473 81.1591 91.5241 81.3397V81.3397C91.4605 81.4329 91.4263 81.5453 91.4263 81.6608C91.4263 81.7762 91.4605 81.8886 91.5241 81.9818V81.9818C91.6473 82.1625 91.8739 82.2375 92.0598 82.3526L140.057 112.057C140.316 112.198 140.602 112.271 140.893 112.271C141.184 112.271 141.47 112.198 141.729 112.057Z" fill="#FAFAFA"/>
<path d="M96.5308 81.8106C96.6818 82.0361 96.9615 82.1323 97.1921 82.2754L112.443 91.7393C112.768 91.9156 113.128 92.0075 113.493 92.0075C113.857 92.0075 114.217 91.9156 114.542 91.7393L141.629 75.0075C141.86 74.8649 142.14 74.769 142.291 74.5435V74.5435C142.369 74.4272 142.411 74.2877 142.411 74.1446C142.411 74.0015 142.369 73.8621 142.291 73.7458V73.7458C142.14 73.5202 141.86 73.4243 141.629 73.2815L126.359 63.8379C126.034 63.6615 125.674 63.5696 125.31 63.5696C124.945 63.5696 124.586 63.6615 124.26 63.8379L97.1926 80.5489C96.9616 80.6915 96.6818 80.7874 96.5308 81.0129V81.0129C96.4529 81.1292 96.411 81.2687 96.411 81.4117C96.411 81.5548 96.4529 81.6943 96.5308 81.8106V81.8106Z" fill="#EBEBEB"/>
<path d="M108.299 77.4487L112.303 78.2839C112.553 78.3396 112.813 78.3143 113.049 78.2112L116.442 76.6551C116.98 76.4061 117.746 76.6551 117.736 77.0649L117.683 79.6584C117.683 79.8244 117.809 79.98 118.027 80.0786L121.478 81.588C122.026 81.8266 121.895 82.3505 121.25 82.475L117.203 83.2583C117.097 83.2691 116.995 83.3044 116.902 83.3617C116.81 83.419 116.731 83.497 116.67 83.5903L115.415 86.0853C115.211 86.4795 114.363 86.5625 113.96 86.2253L111.537 84.0934C111.343 83.9435 111.107 83.8685 110.868 83.8807L106.636 83.9119C105.963 83.9119 105.575 83.445 105.977 83.113L108.507 81.0382C108.543 81.0162 108.575 80.9867 108.6 80.9515C108.626 80.9164 108.644 80.8762 108.655 80.8333C108.666 80.7904 108.669 80.7456 108.663 80.7015C108.658 80.6575 108.645 80.615 108.624 80.5766L107.267 78.1023C107.053 77.6873 107.659 77.3139 108.299 77.4487Z" fill="#FAFAFA"/>
<path d="M117.203 71.9817L125.792 66.6753C125.961 66.569 126.15 66.5061 126.345 66.4917V66.4917C126.734 66.463 127.233 66.7832 126.999 67.0955C126.948 67.1636 126.875 67.2292 126.781 67.2873L118.197 72.5937C118.028 72.6985 117.838 72.7605 117.643 72.7749V72.7749C117.255 72.8036 116.756 72.4872 116.988 72.1737C117.038 72.1056 117.11 72.0399 117.203 71.9817Z" fill="#FAFAFA"/>
<path d="M119.375 73.3198L127.959 68.0134C128.127 67.9071 128.317 67.8443 128.512 67.8299V67.8299C128.901 67.8011 129.402 68.1211 129.168 68.4333C129.117 68.5015 129.043 68.5672 128.947 68.6255L120.363 73.9319C120.194 74.0367 120.005 74.0986 119.81 74.113V74.113C119.421 74.1417 118.918 73.8261 119.151 73.5141C119.203 73.4452 119.278 73.3787 119.375 73.3198Z" fill="#FAFAFA"/>
<path d="M121.536 74.6583L130.12 69.3519C130.289 69.2444 130.478 69.1809 130.673 69.1665C130.869 69.1521 131.065 69.1872 131.245 69.2689C131.521 69.4401 131.458 69.7513 131.109 69.964L122.535 75.2704C122.366 75.3752 122.176 75.4371 121.982 75.4515C121.787 75.4659 121.591 75.4323 121.41 75.3534C121.129 75.1822 121.187 74.871 121.536 74.6583Z" fill="#FAFAFA"/>
<path d="M123.698 75.9912L132.287 70.69C132.454 70.5826 132.643 70.5191 132.838 70.5046C133.032 70.4902 133.227 70.5253 133.407 70.607C133.683 70.773 133.62 71.0842 133.276 71.3021L124.687 76.6033C124.519 76.7107 124.329 76.7742 124.134 76.7887C123.939 76.8031 123.743 76.768 123.562 76.6863C123.291 76.5203 123.354 76.209 123.698 75.9912Z" fill="#FAFAFA"/>
<path d="M125.865 77.3294L134.449 72.0282C134.617 71.9207 134.807 71.8572 135.002 71.8428C135.197 71.8283 135.393 71.8634 135.574 71.9452C135.845 72.1111 135.787 72.4224 135.438 72.6402L126.854 77.9414C126.685 78.0489 126.496 78.1124 126.301 78.1268C126.105 78.1413 125.909 78.1062 125.729 78.0244C125.443 77.8585 125.516 77.5472 125.865 77.3294Z" fill="#FAFAFA"/>
<path d="M128.027 78.6678L136.591 73.3665C136.759 73.2591 136.949 73.1956 137.144 73.1811C137.34 73.1667 137.535 73.2018 137.716 73.2835C137.987 73.4495 137.929 73.7608 137.58 73.9786L129.015 79.2902C128.847 79.3977 128.658 79.4612 128.462 79.4756V79.4756C128.073 79.5044 127.573 79.1835 127.803 78.8675C127.854 78.797 127.929 78.7287 128.027 78.6678Z" fill="#FAFAFA"/>
<path d="M115.902 93.822C115.994 93.9567 116.163 94.0133 116.302 94.0996L116.801 94.4106C116.996 94.5155 117.212 94.5702 117.431 94.5702C117.65 94.5702 117.865 94.5155 118.061 94.4106L134.541 84.2387C134.89 84.0208 134.89 83.6733 134.541 83.4606L133.829 83.0197C133.633 82.9148 133.417 82.8601 133.198 82.8601C132.98 82.8601 132.764 82.9148 132.568 83.0197L116.297 93.0625C116.158 93.1484 115.99 93.206 115.899 93.342V93.342C115.852 93.4122 115.827 93.4964 115.828 93.5825C115.829 93.6687 115.854 93.7525 115.902 93.822V93.822Z" fill="#E0E0E0"/>
<path d="M145.626 75.7215L146.334 76.1624C146.683 76.3751 146.683 76.7226 146.334 76.9405L139.718 81.0279C139.522 81.1329 139.306 81.1875 139.088 81.1875C138.869 81.1875 138.653 81.1329 138.457 81.0279L137.75 80.587C137.401 80.3743 137.401 80.0268 137.75 79.8089L144.347 75.7215C144.545 75.6131 144.764 75.5566 144.986 75.5566C145.209 75.5566 145.428 75.6131 145.626 75.7215Z" fill="#E0E0E0"/>
<path d="M120.16 96.4116C120.309 96.636 120.585 96.7329 120.814 96.8743L136.107 106.315C136.432 106.491 136.791 106.583 137.156 106.583C137.521 106.583 137.88 106.491 138.205 106.315L165.293 89.5832C165.523 89.4406 165.803 89.3447 165.954 89.1192V89.1192C166.032 89.0029 166.074 88.8634 166.074 88.7203C166.074 88.5772 166.032 88.4377 165.954 88.3214V88.3214C165.803 88.0959 165.524 88 165.293 87.8572L150.023 78.4135C149.697 78.2372 149.338 78.1453 148.973 78.1453C148.609 78.1453 148.249 78.2372 147.924 78.4135L120.814 95.1576C120.585 95.299 120.309 95.3959 120.16 95.6203V95.6203C120.084 95.736 120.043 95.8742 120.043 96.016C120.043 96.1577 120.084 96.2959 120.16 96.4116V96.4116Z" fill="#EBEBEB"/>
<path d="M131.938 92.0455L135.947 92.8858C136.197 92.9412 136.457 92.9159 136.693 92.8132L140.086 91.257C140.629 91.008 141.395 91.257 141.385 91.6616L141.332 94.2552C141.332 94.4212 141.453 94.5768 141.671 94.6701L145.127 96.1796C145.675 96.4234 145.539 96.9473 144.899 97.0718L140.857 97.8446C140.751 97.8568 140.649 97.8926 140.557 97.9498C140.465 98.007 140.386 98.0843 140.324 98.1766L139.068 100.672C138.869 101.066 138.021 101.149 137.614 100.812L135.191 98.6798C134.995 98.5299 134.757 98.4549 134.517 98.4671L130.285 98.4982C129.616 98.4982 129.224 98.0314 129.626 97.6994L132.156 95.6246C132.228 95.579 132.281 95.5056 132.303 95.4197C132.326 95.3337 132.317 95.2418 132.277 95.1629L130.915 92.6887C130.697 92.2893 131.303 91.9158 131.938 92.0455Z" fill="#FAFAFA"/>
<path d="M140.852 86.5832L149.436 81.2768C149.605 81.1705 149.794 81.1077 149.989 81.0933C150.184 81.0789 150.38 81.1133 150.561 81.1938C150.837 81.365 150.774 81.6762 150.425 81.8889L141.841 87.1953C141.672 87.3001 141.482 87.3621 141.287 87.3764V87.3764C140.899 87.4051 140.408 87.0807 140.64 86.7683C140.689 86.7027 140.76 86.6395 140.852 86.5832Z" fill="#FAFAFA"/>
<path d="M143.014 87.9216L151.617 82.6152C151.786 82.5089 151.975 82.4461 152.17 82.4317V82.4317C152.56 82.4029 153.058 82.7231 152.824 83.0355C152.773 83.1035 152.7 83.1691 152.606 83.2273L144.017 88.5337C143.849 88.6413 143.66 88.7057 143.465 88.7219V88.7219C143.076 88.7542 142.563 88.4443 142.788 88.125C142.838 88.0527 142.914 87.983 143.014 87.9216Z" fill="#FAFAFA"/>
<path d="M145.18 89.2546L153.764 83.9586C153.933 83.8511 154.122 83.7876 154.317 83.7732C154.513 83.7588 154.709 83.7938 154.889 83.8756C155.16 84.0416 155.102 84.3528 154.753 84.5707L146.169 89.8719C146 89.9767 145.811 90.0386 145.616 90.053V90.053C145.227 90.0817 144.725 89.7675 144.956 89.4536C145.008 89.3834 145.083 89.3154 145.18 89.2546Z" fill="#FAFAFA"/>
<path d="M147.342 90.5928L155.926 85.2916C156.094 85.1841 156.284 85.1206 156.479 85.1062C156.675 85.0918 156.87 85.1268 157.051 85.2086C157.327 85.3746 157.264 85.6858 156.915 85.9037L148.331 91.2204C148.163 91.3279 147.973 91.3914 147.778 91.4058V91.4058C147.388 91.4346 146.889 91.1139 147.116 90.796C147.167 90.7242 147.243 90.6547 147.342 90.5928Z" fill="#FAFAFA"/>
<path d="M149.504 91.9311L158.093 86.6299C158.26 86.5225 158.449 86.459 158.643 86.4446C158.838 86.4301 159.033 86.4652 159.213 86.5469C159.489 86.7129 159.426 87.0241 159.082 87.242L150.493 92.5432C150.325 92.6507 150.135 92.7142 149.94 92.7286C149.744 92.743 149.549 92.7079 149.368 92.6262C149.097 92.4602 149.16 92.149 149.504 91.9311Z" fill="#FAFAFA"/>
<path d="M151.671 93.2954L160.255 87.9942C160.423 87.8868 160.612 87.8232 160.808 87.8088C161.003 87.7944 161.199 87.8295 161.379 87.9112C161.651 88.0772 161.593 88.3884 161.244 88.6063L152.659 93.9075C152.491 94.015 152.302 94.0785 152.106 94.0929V94.0929C151.717 94.1217 151.211 93.7996 151.443 93.4856C151.495 93.4157 151.571 93.3501 151.671 93.2954Z" fill="#FAFAFA"/>
<path d="M139.542 108.422C139.634 108.558 139.802 108.615 139.941 108.701L140.445 109.012C140.64 109.117 140.856 109.172 141.075 109.172C141.294 109.172 141.509 109.117 141.705 109.012L157.976 98.9693C158.115 98.8835 158.284 98.8266 158.375 98.6912V98.6912C158.422 98.6213 158.448 98.5374 158.448 98.4512C158.448 98.3651 158.422 98.2811 158.375 98.2113V98.2113C158.284 98.0759 158.115 98.0188 157.976 97.9329L157.473 97.6213C157.277 97.5163 157.061 97.4617 156.842 97.4617C156.624 97.4617 156.408 97.5163 156.212 97.6213L139.941 107.664C139.802 107.75 139.634 107.807 139.542 107.942V107.942C139.495 108.012 139.47 108.096 139.47 108.182C139.47 108.268 139.495 108.352 139.542 108.422V108.422Z" fill="#E0E0E0"/>
<path d="M169.265 90.3231L169.978 90.764C170.327 90.9767 170.327 91.3242 169.978 91.5421L163.362 95.6295C163.166 95.7345 162.95 95.7891 162.732 95.7891C162.513 95.7891 162.297 95.7345 162.101 95.6295L161.598 95.3179C161.459 95.232 161.29 95.1749 161.199 95.0395V95.0395C161.152 94.9697 161.126 94.8857 161.126 94.7996C161.126 94.7134 161.152 94.6295 161.199 94.5596V94.5596C161.29 94.4242 161.459 94.3673 161.598 94.2815L168.01 90.3231C168.205 90.2182 168.42 90.1636 168.638 90.1636C168.856 90.1636 169.071 90.2182 169.265 90.3231Z" fill="#E0E0E0"/>
<path d="M104.736 68.4959C104.604 68.5655 104.458 68.6017 104.31 68.6017C104.162 68.6017 104.016 68.5655 103.883 68.4959C103.833 68.477 103.79 68.4419 103.759 68.3954C103.728 68.349 103.712 68.2934 103.712 68.2365C103.712 68.1796 103.728 68.124 103.759 68.0776C103.79 68.0311 103.833 67.996 103.883 67.9772C104.016 67.9075 104.162 67.8713 104.31 67.8713C104.458 67.8713 104.604 67.9075 104.736 67.9772C104.974 68.1172 104.974 68.3506 104.736 68.4959Z" fill="#263238"/>
<path d="M103.374 72.6404C103.11 72.7835 102.818 72.8581 102.521 72.8581C102.225 72.8581 101.933 72.7835 101.668 72.6404C101.572 72.5983 101.489 72.5265 101.431 72.4342C101.373 72.3418 101.342 72.233 101.342 72.1217C101.342 72.0104 101.373 71.9016 101.431 71.8092C101.489 71.7168 101.572 71.645 101.668 71.603C101.933 71.4598 102.225 71.3853 102.521 71.3853C102.818 71.3853 103.11 71.4598 103.374 71.603C103.471 71.645 103.553 71.7168 103.611 71.8092C103.669 71.9016 103.7 72.0104 103.7 72.1217C103.7 72.233 103.669 72.3418 103.611 72.4342C103.553 72.5265 103.471 72.5983 103.374 72.6404Z" fill="#263238"/>
<path d="M104.601 70.8041C104.286 70.607 104.305 70.2854 104.639 70.0779L110.252 66.6078C110.435 66.508 110.636 66.4561 110.841 66.4561C111.046 66.4561 111.248 66.508 111.43 66.6078C111.74 66.7997 111.726 67.1265 111.391 67.334L105.778 70.7989C105.596 70.8982 105.395 70.9504 105.19 70.9513C104.986 70.9522 104.784 70.9018 104.601 70.8041Z" fill="#263238"/>
<path d="M90.9851 20.0588V20.0588C90.9851 20.8165 90.5928 21.5203 89.9482 21.9187L87.0493 23.7105L81.1456 27.3415L29.0298 59.5793C28.721 59.7866 28.466 60.0738 28.2882 60.4144C28.0967 60.7494 27.9898 61.1319 27.978 61.5245V135.648C27.978 139.679 25.3315 141.312 22.0742 139.279C18.817 137.246 16.1656 132.365 16.1656 128.334V54.2055C16.1858 53.8156 16.2916 53.4363 16.4743 53.0983C16.657 52.7604 16.9117 52.4733 17.2175 52.2603L75.2321 16.4122L79.8573 13.5595C80.3979 13.226 81.1353 13.4274 81.1504 14.0625V14.0625V14.0625C81.1504 14.7655 80.7868 15.4185 80.1891 15.7888L19.1854 53.5778C18.8946 53.771 18.6531 54.0383 18.4826 54.3559C18.2707 54.7041 18.1517 55.1077 18.1384 55.523V129.548C18.1384 132.235 19.9027 135.498 22.0791 136.841C24.2554 138.185 26.0149 137.095 26.0149 134.408V60.2847C26.0318 59.8964 26.1341 59.5179 26.3135 59.1799C26.4929 58.8419 26.7443 58.5539 27.0473 58.3396L89.7508 19.5953C90.2603 19.2806 90.9569 19.4606 90.9851 20.0588V20.0588Z" fill="#E0E0E0"/>
<path d="M85.0764 16.4899V16.4899C85.0764 18.7083 83.9278 20.7686 82.0408 21.935L25.1084 57.1257C24.8002 57.3353 24.5426 57.6198 24.3565 57.9559C24.1704 58.2921 24.061 58.6705 24.0372 59.0605V133.184C24.0372 134.528 23.1599 135.072 22.0741 134.398C21.5024 134.001 21.0262 133.465 20.6843 132.834C20.3424 132.203 20.1443 131.495 20.1062 130.767V56.6381C20.1187 56.2464 20.2237 55.8645 20.4116 55.528C20.5923 55.1898 20.8467 54.9033 21.1532 54.6929L83.7943 15.9894C84.3303 15.6582 85.0607 15.8601 85.0764 16.4899V16.4899Z" fill="#E0E0E0"/>
<path d="M29.3083 61.0271C29.8354 61.3544 29.9786 62.0502 29.9477 62.6699C29.9469 62.6857 29.9463 62.7016 29.9458 62.7174V136.203C29.9468 136.737 29.9144 137.271 29.8488 137.801C29.8473 137.812 29.8457 137.823 29.8442 137.834C29.8094 138.081 29.7706 138.328 29.7228 138.574V138.574C29.6986 138.698 29.6743 138.791 29.6453 138.895C29.6162 138.999 29.5968 139.097 29.5677 139.196C29.2466 140.458 28.4918 141.544 27.4544 142.236C26.0439 143.102 24.1535 142.998 22.0741 141.717C17.7118 139.03 14.1976 132.204 14.1976 126.477V52.9864V52.9864C14.2168 52.3548 14.9506 52.157 15.4888 52.4881L15.5242 52.5099C16.0546 52.8363 16.1981 53.5366 16.1674 54.1586C16.1666 54.1742 16.166 54.1898 16.1655 54.2054V128.329C16.1655 132.359 18.812 137.261 22.0741 139.274C25.3362 141.286 27.9779 139.658 27.9779 135.643V61.5037V61.5037C27.997 60.868 28.7368 60.6722 29.277 61.0077L29.3083 61.0271Z" fill="#EBEBEB"/>
<path d="M25.3771 58.5924C25.9024 58.9213 26.0446 59.6157 26.0122 60.2347C26.0113 60.2514 26.0106 60.2681 26.01 60.2848V134.408C26.01 137.095 24.2457 138.185 22.0742 136.841C19.9027 135.498 18.1335 132.235 18.1335 129.548V55.5023C18.1342 55.4806 18.1352 55.459 18.1365 55.4374C18.1741 54.7959 18.9228 54.6091 19.4702 54.9459V54.9459C19.9992 55.2714 20.1459 55.9669 20.1133 56.5873C20.1124 56.6042 20.1117 56.6213 20.1112 56.6383V130.762C20.1492 131.49 20.3473 132.198 20.6892 132.829C21.0312 133.46 21.5073 133.996 22.0791 134.393C23.1648 135.067 24.0421 134.523 24.0421 133.179V59.0607V59.0607C24.0612 58.4257 24.8006 58.2313 25.339 58.5685L25.3771 58.5924Z" fill="#EBEBEB"/>
<path d="M80.1713 12.1537C80.6651 12.493 80.4614 13.1873 79.9517 13.5022L75.2418 16.4123L17.2174 52.2603V52.2603C16.7099 52.5976 16.0333 52.8232 15.5143 52.5039L15.4145 52.4425C14.9002 52.126 14.7017 51.4279 15.1932 51.077C15.2102 51.0649 15.2273 51.053 15.2447 51.0414L73.2642 15.1933L74.3838 14.4982L75.5181 13.8135L76.4875 13.2118L77.0643 12.8539L78.1355 12.1952C78.4478 12.0174 78.795 11.921 79.1487 11.9138C79.5025 11.9066 79.8528 11.9888 80.1713 12.1537V12.1537Z" fill="#FAFAFA"/>
<path d="M94.0387 20.7435C94.4497 21.0704 94.2765 21.6718 93.8298 21.9478L89.0123 24.9243L79.1679 31.0036L30.9977 60.7723V60.7723C30.49 61.1145 29.8082 61.3341 29.2899 61.0083L29.2066 60.9559C28.702 60.6386 28.5126 59.9491 28.9973 59.6021C29.008 59.5944 29.0189 59.5868 29.0297 59.5793L81.1407 27.3622L87.0444 23.7313L90.9802 21.2985L91.8963 20.7331L91.9981 20.6761C92.3007 20.5209 92.632 20.4404 92.9675 20.4404C93.3031 20.4404 93.6343 20.5209 93.937 20.6761L94.0387 20.7435V20.7435Z" fill="#FAFAFA"/>
<path d="M84.0877 14.5655C84.5934 14.914 84.3834 15.6255 83.8609 15.9483L21.1532 54.693V54.693C20.6492 55.0389 19.9719 55.2575 19.4513 54.9371L19.3748 54.8901C18.8683 54.5784 18.6802 53.8861 19.1756 53.557V53.557L81.1406 15.1724L82.0519 14.607C82.3642 14.4293 82.7114 14.3328 83.0651 14.3256C83.4189 14.3184 83.7692 14.4006 84.0877 14.5655V14.5655Z" fill="#FAFAFA"/>
<path d="M90.0399 18.2382C90.5184 18.5776 90.3157 19.2553 89.8166 19.5636L27.0472 58.3397V58.3397C26.5374 58.6798 25.8562 58.9046 25.3351 58.5818L25.249 58.5285C24.7341 58.2095 24.5433 57.5052 25.0455 57.1667C25.0662 57.1527 25.0872 57.1391 25.1084 57.1259L85.0958 20.0589L88.0041 18.2745C88.3168 18.0975 88.6642 18.002 89.0179 17.9957C89.3716 17.9894 89.7218 18.0725 90.0399 18.2382V18.2382Z" fill="#FAFAFA"/>
<path d="M94.9063 22.5744V96.06C94.9063 99.0737 93.9369 101.185 92.3713 102.119L27.3623 142.287C27.9378 141.917 28.437 141.425 28.8295 140.842C29.2219 140.259 29.4995 139.597 29.6453 138.895C29.6744 138.791 29.6986 138.682 29.7228 138.574C29.7471 138.465 29.7665 138.33 29.7907 138.205C29.8149 138.081 29.8295 137.941 29.8489 137.801C29.9144 137.271 29.9468 136.737 29.9458 136.203V62.7174C29.9576 62.3272 30.0628 61.9468 30.2512 61.6125C30.4307 61.2702 30.6872 60.9814 30.9976 60.7722L79.1679 31.0086L89.0123 24.9293L93.6357 22.0727C94.1701 21.7426 94.8985 21.9463 94.9063 22.5744V22.5744Z" fill="#F5F5F5"/>
<path d="M36.9063 61.9911L46.6005 55.9896C47.1821 55.6317 47.6474 55.917 47.6474 56.638V71.0737C47.6286 71.4633 47.5239 71.8426 47.3419 72.1807C47.16 72.5187 46.9059 72.8059 46.6005 73.0189L36.9063 79.0203C36.3247 79.3783 35.8545 79.0878 35.8545 78.372V63.9363C35.8743 63.5463 35.9799 63.1668 36.1626 62.8288C36.3454 62.4908 36.6002 62.2038 36.9063 61.9911Z" fill="#455A64"/>
<path d="M35.8545 85.1115C35.8545 84.7528 36.0403 84.4197 36.3454 84.2311L87.4385 52.665C88.1279 52.2391 89.0172 52.735 89.0172 53.5454V53.5454C89.0172 53.9041 88.8315 54.2372 88.5263 54.4257L37.4332 85.9918C36.7438 86.4178 35.8545 85.9218 35.8545 85.1115V85.1115Z" fill="#F9E89C"/>
<path opacity="0.4" d="M35.8545 85.1115C35.8545 84.7528 36.0403 84.4197 36.3454 84.2311L87.4385 52.665C88.1279 52.2391 89.0172 52.735 89.0172 53.5454V53.5454C89.0172 53.9041 88.8315 54.2372 88.5263 54.4257L37.4332 85.9918C36.7438 86.4178 35.8545 85.9218 35.8545 85.1115V85.1115Z" fill="white"/>
<path d="M36.4846 91.4435L47.0415 84.9233C47.3857 84.7055 47.6668 84.8818 47.6668 85.3124V108.084C47.6555 108.317 47.593 108.544 47.4844 108.747C47.3758 108.95 47.2241 109.122 47.0415 109.251L36.4846 115.771C36.1356 115.989 35.8545 115.813 35.8545 115.382V92.6106C35.8659 92.3766 35.929 92.1489 36.0385 91.9461C36.1481 91.7432 36.3009 91.571 36.4846 91.4435Z" fill="#F0F0F0"/>
<path d="M36.4846 118.194L47.0415 111.668C47.3857 111.455 47.6668 111.632 47.6668 112.057V126.59C47.6668 128.636 46.6087 130.535 44.8698 131.612V131.612C40.9352 134.048 35.8545 131.218 35.8545 126.59V119.376C35.8637 119.14 35.9257 118.909 36.0353 118.703C36.1449 118.497 36.299 118.323 36.4846 118.194Z" fill="#F0F0F0"/>
<path d="M50.2696 82.9212L60.8217 76.401C61.1707 76.1884 61.4519 76.3595 61.4519 76.7901V106.875C61.44 107.109 61.3768 107.337 61.2673 107.539C61.1578 107.742 61.0051 107.915 60.8217 108.042L50.2696 114.563C49.9207 114.775 49.6395 114.604 49.6395 114.174V84.0883C49.6521 83.8546 49.7157 83.6274 49.8251 83.4247C49.9345 83.222 50.0868 83.0496 50.2696 82.9212Z" fill="#F0F0F0"/>
<path d="M64.0499 74.4144L74.602 67.8786C74.951 67.6608 75.2321 67.8372 75.2321 68.2677V91.0391C75.2207 91.273 75.1576 91.5008 75.0481 91.7036C74.9386 91.9065 74.7857 92.0787 74.602 92.2061L64.0499 98.7419C63.7009 98.9598 63.4198 98.7834 63.4198 98.3529V75.5815C63.4313 75.3475 63.4943 75.1198 63.6039 74.9169C63.7134 74.7141 63.8662 74.5419 64.0499 74.4144Z" fill="#F0F0F0"/>
<path d="M77.835 65.8971L88.387 59.3769C88.736 59.1591 89.0172 59.3354 89.0172 59.766V89.8512C89.0046 90.0848 88.941 90.3121 88.8316 90.5148C88.7222 90.7174 88.5699 90.8899 88.387 91.0183L77.835 97.5384C77.486 97.7511 77.2048 97.5799 77.2048 97.1494V67.0642C77.2163 66.8303 77.2794 66.6025 77.3889 66.3997C77.4984 66.1968 77.6513 66.0246 77.835 65.8971Z" fill="#F0F0F0"/>
<path d="M50.2696 116.99L60.8217 110.47C61.1707 110.252 61.4519 110.428 61.4519 110.859V118.086C61.4519 120.133 60.378 122.042 58.6373 123.119V123.119C54.7289 125.535 49.6395 122.752 49.6395 118.157V118.157C49.651 117.923 49.714 117.696 49.8236 117.493C49.9331 117.29 50.086 117.118 50.2696 116.99Z" fill="#F0F0F0"/>
<path d="M63.4004 102.342V109.573C63.4004 114.198 68.4761 117.029 72.4109 114.597V114.597C74.1526 113.521 75.2127 111.62 75.2127 109.573V95.0435C75.2127 94.613 74.9316 94.4418 74.5826 94.6544L64.0305 101.175C63.8471 101.302 63.6944 101.475 63.585 101.678C63.4755 101.88 63.4122 102.108 63.4004 102.342Z" fill="#F0F0F0"/>
<path d="M77.8301 99.9609L88.387 93.4407C88.736 93.2228 89.0172 93.3992 89.0172 93.8297V101.056C89.0172 103.103 87.9424 105.013 86.2007 106.089V106.089C82.2928 108.504 77.2048 105.722 77.2048 101.128V101.128C77.2161 100.895 77.2786 100.667 77.3873 100.465C77.4959 100.262 77.6476 100.089 77.8301 99.9609Z" fill="#F0F0F0"/>
<path d="M52.2521 118.193L58.8683 114.106C59.2173 113.888 59.4984 114.064 59.4984 114.495V120.268C59.487 120.502 59.4239 120.73 59.3144 120.933C59.2049 121.136 59.052 121.308 58.8683 121.435L52.2521 125.512C51.9031 125.725 51.6219 125.554 51.6219 125.123V119.381C51.6304 119.144 51.692 118.912 51.8017 118.705C51.9113 118.498 52.0658 118.323 52.2521 118.193Z" fill="#E0E0E0"/>
<path d="M79.803 101.185L86.4192 97.0976C86.7634 96.8798 87.0494 97.0561 87.0494 97.4867V103.229C87.0364 103.462 86.9727 103.689 86.8633 103.892C86.7539 104.095 86.6019 104.267 86.4192 104.396L79.803 108.483C79.454 108.696 79.1729 108.525 79.1729 108.094V102.352C79.1843 102.118 79.2474 101.89 79.3569 101.688C79.4664 101.485 79.6193 101.313 79.803 101.185Z" fill="#E0E0E0"/>
<path d="M38.4525 92.6626L45.0688 88.57C45.4178 88.3574 45.6989 88.5337 45.6989 88.9591V94.7064C45.6863 94.94 45.6227 95.1673 45.5133 95.37C45.4039 95.5726 45.2516 95.7451 45.0688 95.8735L38.4525 99.9609C38.1084 100.174 37.8224 100.002 37.8224 99.5719V93.8142C37.8365 93.583 37.9007 93.3585 38.0101 93.1586C38.1195 92.9587 38.271 92.7889 38.4525 92.6626Z" fill="#E0E0E0"/>
<path d="M38.2441 101.304L45.282 96.9574C45.5147 96.8174 45.6989 96.9315 45.6989 97.2168V97.3984C45.6915 97.554 45.6499 97.7056 45.5774 97.8407C45.505 97.9759 45.4038 98.091 45.282 98.1764L38.2441 102.523C38.0114 102.668 37.8224 102.523 37.8224 102.264V102.082C37.8307 101.926 37.8732 101.775 37.9465 101.639C38.0197 101.504 38.1217 101.389 38.2441 101.304Z" fill="#E0E0E0"/>
<path d="M38.2441 103.737L45.282 99.3901C45.5147 99.25 45.6989 99.3641 45.6989 99.6494V99.831C45.6915 99.9866 45.6499 100.138 45.5774 100.273C45.505 100.409 45.4038 100.524 45.282 100.609L38.2441 104.956C38.0114 105.101 37.8224 104.956 37.8224 104.696V104.515C37.8307 104.359 37.8732 104.207 37.9465 104.072C38.0197 103.937 38.1217 103.822 38.2441 103.737Z" fill="#E0E0E0"/>
<path d="M38.2441 106.17L45.282 101.823C45.5147 101.683 45.6989 101.797 45.6989 102.083V102.264C45.6915 102.42 45.6499 102.571 45.5774 102.706C45.505 102.842 45.4038 102.957 45.282 103.042L38.2441 107.389C38.0114 107.534 37.8224 107.415 37.8224 107.13V106.948C37.8307 106.792 37.8732 106.64 37.9465 106.505C38.0197 106.37 38.1217 106.255 38.2441 106.17Z" fill="#E0E0E0"/>
<path d="M38.2441 108.603L45.282 104.256C45.5147 104.116 45.6989 104.23 45.6989 104.515V104.707C45.6915 104.863 45.6499 105.014 45.5774 105.149C45.505 105.285 45.4038 105.4 45.282 105.485L38.2441 109.832C38.0114 109.977 37.8224 109.858 37.8224 109.573V109.375C37.8315 109.22 37.8743 109.07 37.9475 108.935C38.0208 108.801 38.1223 108.687 38.2441 108.603Z" fill="#E0E0E0"/>
<path d="M38.2441 111.035L45.282 106.688C45.5147 106.548 45.6989 106.662 45.6989 106.948V107.129C45.6915 107.285 45.6499 107.437 45.5774 107.572C45.505 107.707 45.4038 107.822 45.282 107.907L38.2441 112.254C38.0114 112.399 37.8224 112.28 37.8224 111.995V111.813C37.8307 111.657 37.8732 111.506 37.9465 111.37C38.0197 111.235 38.1217 111.12 38.2441 111.035Z" fill="#E0E0E0"/>
<path d="M52.2521 84.1453L58.8683 80.0578C59.2173 79.84 59.4984 80.0164 59.4984 80.4469V86.189C59.4866 86.4229 59.4234 86.6504 59.3139 86.8532C59.2044 87.056 59.0517 87.2283 58.8683 87.3561L52.2521 91.4435C51.9031 91.6562 51.6219 91.485 51.6219 91.0545V85.3124C51.6334 85.0784 51.6965 84.8507 51.806 84.6478C51.9155 84.445 52.0684 84.2728 52.2521 84.1453Z" fill="#E0E0E0"/>
<path d="M52.0243 92.7767L59.0622 88.4299C59.2949 88.2847 59.4839 88.3988 59.4839 88.6893V88.8656C59.476 89.0217 59.4336 89.1736 59.3603 89.3088C59.2871 89.444 59.1849 89.5588 59.0622 89.6437L52.0243 93.9905C51.7965 94.1357 51.6074 93.9905 51.6074 93.7311V93.5548C51.6148 93.3991 51.6564 93.2475 51.7289 93.1124C51.8013 92.9772 51.9025 92.8622 52.0243 92.7767Z" fill="#E0E0E0"/>
<path d="M52.0243 95.2249L59.0622 90.8781C59.2949 90.7329 59.4839 90.847 59.4839 91.1375V91.3139C59.476 91.47 59.4336 91.6218 59.3603 91.7571C59.2871 91.8923 59.1849 92.007 59.0622 92.0919L52.0243 96.4387C51.7965 96.584 51.6074 96.4647 51.6074 96.1794V96.003C51.6148 95.8474 51.6564 95.6958 51.7289 95.5606C51.8013 95.4254 51.9025 95.3104 52.0243 95.2249Z" fill="#E0E0E0"/>
<path d="M52.0243 97.6577L59.0622 93.2954C59.2949 93.1501 59.4839 93.2643 59.4839 93.5547V93.7311C59.476 93.8872 59.4336 94.0391 59.3603 94.1743C59.2871 94.3095 59.1849 94.4243 59.0622 94.5092L52.0243 98.856C51.7965 99.0012 51.6074 98.8819 51.6074 98.5966V98.4202C51.617 98.2673 51.6597 98.1188 51.732 97.9865C51.8044 97.8542 51.9044 97.7417 52.0243 97.6577Z" fill="#E0E0E0"/>
<path d="M52.0243 100.09L59.0622 95.7436C59.2949 95.5984 59.4839 95.7125 59.4839 96.003V96.1793C59.476 96.3354 59.4336 96.4873 59.3603 96.6225C59.2871 96.7578 59.1849 96.8725 59.0622 96.9574L52.0243 101.304C51.7965 101.449 51.6074 101.33 51.6074 101.045V100.868C51.6148 100.713 51.6564 100.561 51.7289 100.426C51.8013 100.291 51.9025 100.176 52.0243 100.09Z" fill="#E0E0E0"/>
<path d="M52.0243 102.523L59.0622 98.1765C59.2949 98.0312 59.4839 98.1454 59.4839 98.4358V98.6122C59.476 98.7683 59.4336 98.9202 59.3603 99.0554C59.2871 99.1906 59.1849 99.3054 59.0622 99.3903L52.0243 103.737C51.7965 103.882 51.6074 103.763 51.6074 103.478V103.301C51.6148 103.146 51.6564 102.994 51.7289 102.859C51.8013 102.724 51.9025 102.609 52.0243 102.523Z" fill="#E0E0E0"/>
<path d="M52.0243 104.956L59.0622 100.609C59.2949 100.464 59.4839 100.583 59.4839 100.868V101.045C59.4768 101.201 59.4347 101.353 59.3614 101.489C59.288 101.624 59.1854 101.739 59.0622 101.823L52.0243 106.17C51.7965 106.315 51.6074 106.201 51.6074 105.91V105.744C51.6145 105.587 51.6559 105.434 51.7283 105.297C51.8006 105.16 51.902 105.043 52.0243 104.956Z" fill="#E0E0E0"/>
<path d="M52.0243 107.389L59.0622 103.042C59.2949 102.897 59.4839 103.016 59.4839 103.301V103.478C59.4768 103.634 59.4347 103.786 59.3614 103.922C59.288 104.057 59.1854 104.172 59.0622 104.256L52.0243 108.603C51.7965 108.748 51.6074 108.634 51.6074 108.343V108.167C51.616 108.012 51.658 107.86 51.7304 107.725C51.8027 107.59 51.9033 107.475 52.0243 107.389Z" fill="#E0E0E0"/>
<path d="M52.0243 109.822L59.0622 105.475C59.2949 105.33 59.4839 105.449 59.4839 105.734V105.911C59.4768 106.067 59.4347 106.219 59.3614 106.354C59.288 106.49 59.1854 106.604 59.0622 106.689L52.0243 111.035C51.7965 111.181 51.6074 111.067 51.6074 110.776V110.6C51.616 110.444 51.658 110.293 51.7304 110.158C51.8027 110.023 51.9033 109.908 52.0243 109.822Z" fill="#E0E0E0"/>
<path d="M38.4525 119.428L45.0688 115.335C45.4178 115.123 45.6989 115.299 45.6989 115.724V121.472C45.6871 121.706 45.6238 121.933 45.5143 122.136C45.4048 122.339 45.2522 122.511 45.0688 122.639L38.4525 126.726C38.1084 126.939 37.8224 126.768 37.8224 126.337V120.595C37.8342 120.361 37.8975 120.134 38.0069 119.931C38.1164 119.728 38.2691 119.556 38.4525 119.428Z" fill="#E0E0E0"/>
<path d="M38.2441 128.049L45.282 123.702C45.5147 123.562 45.6989 123.676 45.6989 123.962V124.143C45.6915 124.299 45.6499 124.45 45.5774 124.586C45.505 124.721 45.4038 124.836 45.282 124.921L38.2441 129.268C38.0114 129.413 37.8224 129.294 37.8224 129.009V128.827C37.8307 128.671 37.8732 128.519 37.9465 128.384C38.0197 128.249 38.1217 128.134 38.2441 128.049Z" fill="#E0E0E0"/>
<path d="M38.2441 130.502L45.282 126.156C45.5147 126.016 45.6989 126.13 45.6989 126.415V126.597C45.6915 126.752 45.6499 126.904 45.5774 127.039C45.505 127.174 45.4038 127.289 45.282 127.375L38.2441 131.721C38.0114 131.867 37.8224 131.747 37.8224 131.462V131.281C37.8307 131.125 37.8732 130.973 37.9465 130.838C38.0197 130.702 38.1217 130.588 38.2441 130.502Z" fill="#E0E0E0"/>
<path d="M38.2441 132.94L45.282 128.568C45.5147 128.428 45.6989 128.542 45.6989 128.827V129.008C45.6915 129.164 45.6499 129.316 45.5774 129.451C45.505 129.586 45.4038 129.701 45.282 129.787L38.2441 134.133C38.0114 134.279 37.8224 134.159 37.8224 133.874V133.698C37.8325 133.545 37.876 133.397 37.9492 133.265C38.0224 133.134 38.1234 133.023 38.2441 132.94Z" fill="#E0E0E0"/>
<path d="M66.0178 75.6281L72.6341 71.5407C72.9831 71.328 73.2642 71.4992 73.2642 71.9297V77.6718C73.2527 77.9058 73.1897 78.1335 73.0801 78.3364C72.9706 78.5392 72.8178 78.7115 72.6341 78.8389L66.0178 82.9212C65.6737 83.1339 65.3877 82.9575 65.3877 82.5321V76.7952C65.401 76.5617 65.4649 76.3348 65.5743 76.1322C65.6836 75.9297 65.8355 75.7571 66.0178 75.6281Z" fill="#E0E0E0"/>
<path d="M65.8239 84.2749L72.8619 79.9282C73.0897 79.7881 73.2787 79.9282 73.2787 80.1875V80.3691C73.2702 80.5244 73.2281 80.6755 73.1558 80.8105C73.0834 80.9455 72.9828 81.0608 72.8619 81.1471L65.8239 85.5147C65.5913 85.6547 65.4022 85.5147 65.4022 85.2553V85.0738C65.4075 84.9142 65.4486 84.7583 65.522 84.6193C65.5954 84.4803 65.6989 84.3622 65.8239 84.2749Z" fill="#E0E0E0"/>
<path d="M65.8239 86.7078L72.8619 82.361C73.0897 82.221 73.2787 82.361 73.2787 82.6204V82.8019C73.2702 82.9573 73.2281 83.1084 73.1558 83.2434C73.0834 83.3784 72.9828 83.4936 72.8619 83.58L65.8239 87.9268C65.5913 88.0668 65.4022 87.9268 65.4022 87.6674V87.4859C65.4105 87.3299 65.4531 87.1782 65.5263 87.043C65.5996 86.9078 65.7015 86.793 65.8239 86.7078Z" fill="#E0E0E0"/>
<path d="M65.8239 89.1458L72.8619 84.799C73.0897 84.6589 73.2787 84.7731 73.2787 85.0584V85.2399C73.2702 85.3953 73.2281 85.5464 73.1558 85.6814C73.0834 85.8164 72.9828 85.9316 72.8619 86.018L65.8239 90.3596C65.5913 90.4996 65.4022 90.3596 65.4022 90.1002V89.9187C65.4113 89.7636 65.4541 89.6129 65.5274 89.4787C65.6006 89.3445 65.7022 89.2305 65.8239 89.1458Z" fill="#E0E0E0"/>
<path d="M65.8239 91.5733L72.8619 87.2265C73.0897 87.0864 73.2787 87.2006 73.2787 87.4858V87.6674C73.2702 87.8227 73.2281 87.9739 73.1558 88.1089C73.0834 88.2439 72.9828 88.3591 72.8619 88.4455L65.8239 92.7767C65.5913 92.9167 65.4022 92.8026 65.4022 92.5173V92.3358C65.4128 92.1825 65.4563 92.0339 65.5295 91.9016C65.6026 91.7693 65.7034 91.6569 65.8239 91.5733Z" fill="#E0E0E0"/>
<path d="M65.8239 94.0061L72.8473 89.6645C73.0751 89.5244 73.2642 89.6385 73.2642 89.9238V90.1054C73.2556 90.2607 73.2136 90.4119 73.1412 90.5469C73.0689 90.6819 72.9683 90.7971 72.8473 90.8835L65.8239 95.2251C65.5913 95.3651 65.4022 95.251 65.4022 94.9657V94.7841C65.4105 94.6281 65.4531 94.4764 65.5263 94.3413C65.5996 94.2061 65.7015 94.0913 65.8239 94.0061Z" fill="#E0E0E0"/>
<path d="M79.803 67.116L86.4192 63.0286C86.7634 62.8107 87.0494 62.9871 87.0494 63.4176V69.1597C87.0364 69.3933 86.9727 69.6204 86.8633 69.823C86.7539 70.0256 86.6019 70.1981 86.4192 70.3268L79.803 74.4142C79.454 74.6269 79.1729 74.4557 79.1729 74.0252V68.2831C79.1843 68.0491 79.2474 67.8214 79.3569 67.6185C79.4664 67.4157 79.6193 67.2435 79.803 67.116Z" fill="#E0E0E0"/>
<path d="M79.5897 75.7579L86.6277 71.4111C86.8603 71.271 87.0494 71.3851 87.0494 71.6704V71.852C87.041 72.008 86.9985 72.1597 86.9253 72.2948C86.852 72.43 86.7501 72.5448 86.6277 72.63L79.5897 76.9768C79.3619 77.1221 79.1729 77.0028 79.1729 76.7175V76.5359C79.1814 76.3806 79.2235 76.2294 79.2958 76.0944C79.3681 75.9594 79.4687 75.8442 79.5897 75.7579Z" fill="#E0E0E0"/>
<path d="M79.5897 78.1957L86.6277 73.8437C86.8603 73.7036 87.0494 73.8177 87.0494 74.103V74.2846C87.041 74.4406 86.9985 74.5923 86.9253 74.7275C86.852 74.8626 86.7501 74.9775 86.6277 75.0627L79.5897 79.4094C79.3619 79.5547 79.1729 79.4354 79.1729 79.1501V78.9737C79.1803 78.8181 79.2219 78.6665 79.2943 78.5313C79.3667 78.3961 79.4679 78.2811 79.5897 78.1957Z" fill="#E0E0E0"/>
<path d="M79.5897 80.6285L86.6277 76.2765C86.8603 76.1365 87.0494 76.2506 87.0494 76.5359V76.6967C87.041 76.8527 86.9985 77.0044 86.9253 77.1396C86.852 77.2747 86.7501 77.3896 86.6277 77.4748L79.5897 81.8216C79.3619 81.9668 79.1729 81.8475 79.1729 81.5622V81.3858C79.1832 81.2338 79.2262 81.0864 79.2985 80.955C79.3708 80.8236 79.4705 80.7119 79.5897 80.6285Z" fill="#E0E0E0"/>
<path d="M79.5897 83.0614L86.6277 78.7094C86.8603 78.5694 87.0494 78.7094 87.0494 78.9688V79.1503C87.041 79.3063 86.9985 79.458 86.9253 79.5932C86.852 79.7284 86.7501 79.8432 86.6277 79.9284L79.5897 84.2752C79.3619 84.4204 79.1729 84.2752 79.1729 84.0158V83.8394C79.1803 83.6838 79.2219 83.5322 79.2943 83.397C79.3667 83.2618 79.4679 83.1468 79.5897 83.0614Z" fill="#E0E0E0"/>
<path d="M79.5897 85.5147L86.6277 81.1628C86.8603 81.0227 87.0494 81.1628 87.0494 81.4221V81.6037C87.041 81.7597 86.9985 81.9114 86.9253 82.0466C86.852 82.1817 86.7501 82.2965 86.6277 82.3817L79.5897 86.7078C79.3619 86.853 79.1729 86.7078 79.1729 86.4484V86.2721C79.1832 86.12 79.2262 85.9726 79.2985 85.8412C79.3708 85.7099 79.4705 85.5982 79.5897 85.5147Z" fill="#E0E0E0"/>
<path d="M79.5897 87.9268L86.6277 83.58C86.8603 83.4348 87.0494 83.5489 87.0494 83.8394V84.0158C87.0414 84.1719 86.9991 84.3237 86.9258 84.459C86.8525 84.5942 86.7503 84.7089 86.6277 84.7938L79.5897 89.1458C79.3619 89.291 79.1729 89.1458 79.1729 88.8864V88.7101C79.1799 88.5537 79.2213 88.4012 79.2937 88.2651C79.3662 88.129 79.4676 88.0131 79.5897 87.9268Z" fill="#E0E0E0"/>
<path d="M79.5897 90.3595L86.6277 86.0334C86.8603 85.8882 87.0494 86.0023 87.0494 86.2928V86.4691C87.0414 86.6252 86.9991 86.7771 86.9258 86.9123C86.8525 87.0476 86.7503 87.1623 86.6277 87.2472L79.5897 91.594C79.3619 91.7392 79.1729 91.594 79.1729 91.3346V91.1583C79.1776 90.9992 79.218 90.8436 79.2905 90.7046C79.363 90.5656 79.4656 90.4473 79.5897 90.3595Z" fill="#E0E0E0"/>
<path d="M79.5897 92.7767L86.6277 88.4299C86.8603 88.2847 87.0494 88.3988 87.0494 88.6893V88.8656C87.0414 89.0217 86.9991 89.1736 86.9258 89.3088C86.8525 89.444 86.7503 89.5588 86.6277 89.6437L79.5897 93.9905C79.3619 94.1357 79.1729 94.0216 79.1729 93.7311V93.5548C79.1806 93.3992 79.2224 93.2478 79.2948 93.1127C79.3672 92.9775 79.4682 92.8625 79.5897 92.7767Z" fill="#E0E0E0"/>
<path d="M66.0178 102.393L72.6341 98.3061C72.9831 98.0934 73.2642 98.2646 73.2642 98.6951V104.437C73.2527 104.671 73.1897 104.899 73.0801 105.102C72.9706 105.305 72.8178 105.477 72.6341 105.604L66.0178 109.697C65.6737 109.91 65.3877 109.733 65.3877 109.308V103.561C65.401 103.327 65.4649 103.1 65.5743 102.898C65.6836 102.695 65.8355 102.522 66.0178 102.393Z" fill="#E0E0E0"/>
<path d="M65.8239 111.041L72.8619 106.694C73.0897 106.554 73.2787 106.668 73.2787 106.953V107.135C73.2702 107.29 73.2281 107.441 73.1558 107.576C73.0834 107.711 72.9828 107.826 72.8619 107.913L65.8239 112.26C65.5913 112.4 65.4022 112.285 65.4022 112V111.819C65.4105 111.663 65.4531 111.511 65.5263 111.376C65.5996 111.241 65.7015 111.126 65.8239 111.041Z" fill="#E0E0E0"/>
<path d="M65.8239 113.473L72.8619 109.126C73.0897 108.986 73.2787 109.126 73.2787 109.386V109.567C73.2702 109.723 73.2281 109.874 73.1558 110.009C73.0834 110.144 72.9828 110.259 72.8619 110.345L65.8239 114.692C65.5913 114.832 65.4022 114.718 65.4022 114.433V114.251C65.4105 114.095 65.4531 113.944 65.5263 113.808C65.5996 113.673 65.7015 113.558 65.8239 113.473Z" fill="#E0E0E0"/>
<path d="M65.8239 115.906L72.8619 111.559C73.0897 111.419 73.2787 111.559 73.2787 111.818V112C73.2702 112.155 73.2281 112.306 73.1558 112.441C73.0834 112.576 72.9828 112.692 72.8619 112.778L65.8239 117.125C65.5913 117.265 65.4022 117.151 65.4022 116.865V116.684C65.4105 116.528 65.4531 116.376 65.5263 116.241C65.5996 116.106 65.7015 115.991 65.8239 115.906Z" fill="#E0E0E0"/>
<path d="M51.9129 68.4285C51.8159 68.3939 51.7675 68.2954 51.7675 68.1329C51.7733 67.975 51.8028 67.8191 51.8547 67.6712L52.3782 65.8869C52.4031 65.7667 52.4514 65.6542 52.5196 65.5563C52.5659 65.4899 52.6317 65.4297 52.7126 65.4297V65.4297C52.7533 65.4297 52.7933 65.4406 52.829 65.4615C53.0985 65.5822 53.392 65.6284 53.6826 65.5958C53.9731 65.5631 54.2513 65.4527 54.4915 65.2748C54.9248 65.0044 55.2648 64.5914 55.4609 64.0973C55.6875 63.491 55.7948 62.8412 55.776 62.1884V51.7261C55.767 51.424 55.8182 51.1234 55.9262 50.8443C56.0425 50.5868 56.2327 50.3759 56.4691 50.2426L57.5452 49.5786V49.5786C57.8659 49.3795 58.2127 49.6814 58.2254 50.0587C58.2273 50.1129 58.2251 50.1674 58.2189 50.2218V60.7205C58.2363 62.1938 57.9448 63.6526 57.3658 64.9895C56.8383 66.22 55.9658 67.2443 54.8696 67.9202C53.7031 68.6429 52.7175 68.8124 51.9129 68.4285Z" fill="#455A64"/>
<path d="M60.6424 62.1261C59.7732 61.1717 59.3386 59.3441 59.3386 56.6433C59.2891 54.2067 59.7339 51.7875 60.6424 49.5526C61.4169 47.641 62.7392 46.0425 64.4183 44.9879C66.0615 43.9505 67.3265 43.9505 68.1845 44.8945C69.0424 45.8386 69.4883 47.6696 69.4883 50.3721C69.5378 52.8088 69.093 55.2279 68.1845 57.4629C67.4119 59.3712 66.0932 60.9677 64.4183 62.0223C62.7703 63.039 61.5117 63.0736 60.6424 62.1261ZM66.4201 56.5033C66.9133 55.0052 67.1433 53.4225 67.0987 51.8349C67.0987 49.9641 66.8725 48.6915 66.4201 48.0172C65.9694 47.3429 65.3053 47.2806 64.4183 47.8252C63.478 48.442 62.7656 49.3876 62.4019 50.5018C61.9098 52 61.6813 53.5829 61.7282 55.1702C61.7282 57.0375 61.9511 58.3136 62.4019 58.9827C62.8527 59.6518 63.5264 59.7193 64.4183 59.1642C65.3546 58.5536 66.0625 57.6125 66.4201 56.5033Z" fill="#455A64"/>
<path d="M71.3302 57.3901C71.0255 57.5774 70.6933 57.2973 70.675 56.9401C70.672 56.8812 70.6738 56.8218 70.6807 56.7625V42.5343C70.6727 42.2301 70.7255 41.9277 70.8358 41.6473C70.9363 41.4066 71.1062 41.2066 71.3205 41.0767L75.5859 38.4365C76.6588 37.776 77.4666 37.6861 78.0095 38.1667C78.5523 38.6474 78.8189 39.5984 78.8092 41.0196C78.8096 41.7715 78.7 42.5189 78.4845 43.2345V43.2345C78.2658 44.0053 78.76 45.5367 78.9459 46.316C79.039 46.706 79.0855 47.1866 79.0855 47.7577C79.0852 48.6757 78.9562 49.5884 78.7026 50.4653C78.4475 51.3504 78.0524 52.182 77.5345 52.924C77.0147 53.6711 76.3542 54.2932 75.5956 54.7499L71.3302 57.3901V57.3901ZM75.1982 45.2886C75.5873 45.045 75.9008 44.6842 76.0997 44.2512C76.3264 43.7562 76.4378 43.2098 76.4245 42.6588C76.4245 42.0052 76.3227 41.6213 76.124 41.4398C75.9252 41.2582 75.615 41.3361 75.1982 41.5902L73.8358 42.4368C73.3748 42.7232 73.0945 43.2274 73.0945 43.7701V44.1264C73.0945 45.2064 74.2839 45.8635 75.1982 45.2886V45.2886ZM75.4308 51.9592C75.8639 51.698 76.2046 51.2915 76.4002 50.8025C76.6142 50.2758 76.7215 49.7066 76.7153 49.1323C76.7153 48.4476 76.5941 48.0067 76.3518 47.8147C76.1094 47.6228 75.7653 47.6591 75.329 47.9289L73.924 48.7932C73.4086 49.1103 73.0945 49.6721 73.0945 50.2773V50.6582C73.0945 51.8575 74.4113 52.5908 75.4308 51.9592V51.9592Z" fill="#455A64"/>
<path d="M81.2425 51.2281C80.6895 51.4016 80.0986 51.3761 79.5605 51.1555C79.497 51.1259 79.4427 51.0774 79.4041 51.0158C79.3654 50.9543 79.344 50.8821 79.3424 50.808C79.3486 50.6786 79.3731 50.5509 79.4151 50.4293L80.0162 48.4997C80.0337 48.4002 80.073 48.3071 80.1303 48.2278C80.1747 48.1663 80.2384 48.1128 80.3142 48.1128V48.1128V48.1128C80.3901 48.1128 80.4599 48.1532 80.5337 48.1709C80.9032 48.2597 81.2861 48.2676 81.6593 48.1937C82.1568 48.0981 82.6345 47.9084 83.0698 47.6335C83.5746 47.3424 84.0055 46.924 84.3252 46.4145C84.6057 45.9158 84.747 45.3417 84.7324 44.7598C84.7569 44.4342 84.6875 44.1083 84.5336 43.8262C84.3919 43.628 84.1829 43.4976 83.952 43.4631C83.5583 43.4069 83.1616 43.3792 82.7644 43.3801C82.2317 43.3934 81.6999 43.327 81.1843 43.183C80.7388 43.0377 80.3602 42.7195 80.1228 42.2908C79.8051 41.6545 79.6607 40.9357 79.7059 40.2159C79.6882 38.7741 80.0367 37.3542 80.7141 36.1078C81.3451 34.9245 82.2584 33.9417 83.3606 33.26C84.8148 32.3627 85.915 32.1292 86.6809 32.5494C86.7419 32.5827 86.7939 32.6321 86.8321 32.6929C86.8702 32.7537 86.8933 32.8239 86.899 32.8969C86.8928 33.0264 86.8683 33.154 86.8263 33.2756L86.2301 35.2052C86.213 35.3031 86.174 35.3946 86.1173 35.4722C86.0722 35.5338 86.0084 35.5892 85.932 35.5892V35.5892C85.8937 35.5892 85.8561 35.5784 85.8229 35.5579C85.2316 35.2847 84.5142 35.4075 83.6709 35.9262C83.1846 36.1943 82.7789 36.6037 82.5002 37.1074C82.2216 37.6111 82.0813 38.1888 82.0956 38.7739C82.0737 39.0875 82.1377 39.4012 82.2797 39.6765C82.3913 39.8601 82.565 39.9903 82.7644 40.0396C83.097 40.104 83.4347 40.1335 83.7726 40.1278H84.1798C84.7469 40.1301 85.3105 40.2227 85.852 40.4027C86.2663 40.5641 86.6043 40.8941 86.7924 41.3208C87.0446 41.9776 87.1556 42.6867 87.1171 43.3956C87.1181 44.7675 86.7839 46.1157 86.1477 47.3067C85.4982 48.5413 84.5419 49.5592 83.3849 50.2478C82.7231 50.6925 82.0001 51.0233 81.2425 51.2281Z" fill="#455A64"/>
<path d="M142.062 1.70547C141.962 1.40887 141.678 1.22961 141.412 1.06486L139.844 0.0936304C139.701 0.0225242 139.543 -0.00631909 139.386 0.0101007C139.229 0.0265204 139.079 0.0876038 138.952 0.186998L113.907 15.6964C113.541 15.9529 113.236 16.2977 113.017 16.7031C112.798 17.1085 112.672 17.5632 112.647 18.0306V73.2732C112.63 73.4404 112.655 73.6094 112.72 73.7626C112.785 73.9158 112.887 74.0477 113.015 74.1447L114.94 75.3495C114.949 75.3554 114.96 75.3585 114.971 75.3585V75.3585C114.979 75.3585 114.987 75.3601 114.994 75.3632C115.13 75.4198 115.277 75.4397 115.423 75.4212C115.572 75.4021 115.714 75.3431 115.836 75.2495L118.829 73.4003C120.412 72.4229 122.452 73.561 122.452 75.4207V75.4207C122.452 76.1728 122.564 76.6086 122.748 76.7279L124.687 77.9365C124.91 78.0661 125.235 77.7342 125.598 76.899V76.899C128.655 69.9715 133.731 64.1276 140.162 60.1314L140.842 59.709C141.208 59.4525 141.513 59.1077 141.732 58.7023C141.951 58.2969 142.078 57.8422 142.102 57.3748V2.65843C142.102 2.33916 142.163 2.00814 142.062 1.70547V1.70547V1.70547Z" fill="#F9E89C"/>
<path opacity="0.4" d="M141.387 1.04807C141.43 1.07497 141.379 1.22467 141.328 1.23183V1.23183C141.181 1.25257 141.041 1.31045 140.92 1.40064L115.87 16.9153C115.848 16.93 115.826 16.9451 115.804 16.9606C115.256 17.3511 114.51 17.5935 113.938 17.2393V17.2393C113.425 16.9216 113.228 16.2322 113.694 15.8496C113.761 15.7949 113.83 15.7437 113.902 15.6963L138.947 0.181675C139.115 0.071114 139.307 0.00860477 139.504 0.000127114C139.621 -0.00222776 139.736 0.0281729 139.839 0.0883069L141.387 1.04807Z" fill="white"/>
<path opacity="0.2" d="M122.782 76.7485C122.603 76.6292 122.491 76.1935 122.491 75.4413V71.7383C122.491 71.396 122.668 71.0779 122.958 70.8969V70.8969C123.619 70.4858 124.474 70.9605 124.474 71.7383V76.6447V76.6447C124.474 76.7996 123.717 77.3197 123.585 77.2389L122.782 76.7485Z" fill="black"/>
<path opacity="0.1" d="M114.993 75.3634L113.025 74.1496C112.899 74.0514 112.8 73.9198 112.736 73.768C112.672 73.6161 112.646 73.4491 112.661 73.2833V18.0303C112.664 17.9536 112.67 17.8772 112.679 17.8014C112.753 17.1526 113.508 16.9607 114.063 17.3045V17.3045C114.595 17.6339 114.743 18.3318 114.659 18.9516C114.646 19.05 114.637 19.1494 114.634 19.2493V74.4919C114.616 74.6582 114.639 74.8267 114.703 74.9799C114.766 75.1332 114.866 75.2655 114.993 75.3634Z" fill="black"/>
<path d="M119.598 19.4724L137.188 8.5795C137.769 8.22159 138.239 8.51207 138.239 9.22789V21.1945C138.22 21.5852 138.114 21.9654 137.931 22.3042C137.749 22.6431 137.494 22.9311 137.188 23.1449L119.598 34.0378C119.021 34.3957 118.551 34.1052 118.551 33.3894V21.4176C118.571 21.0283 118.676 20.6494 118.858 20.3116C119.039 19.9737 119.293 19.6863 119.598 19.4724Z" fill="#455A64"/>
<path d="M138.239 26.1691C138.214 26.547 138.105 26.913 137.922 27.2375C137.74 27.562 137.488 27.8357 137.188 28.0364L119.598 38.9034C119.021 39.2613 118.551 39.0071 118.551 38.3328C118.577 37.9564 118.685 37.5918 118.867 37.2684C119.049 36.945 119.299 36.6717 119.598 36.4707L137.188 25.6037C137.769 25.2458 138.239 25.4999 138.239 26.1691Z" fill="#455A64"/>
<path d="M138.239 31.0502C138.214 31.428 138.105 31.7941 137.922 32.1186C137.74 32.4431 137.488 32.7168 137.188 32.9175L119.598 43.8104C119.021 44.1683 118.551 43.9142 118.551 43.2398C118.577 42.8634 118.685 42.4989 118.867 42.1754C119.049 41.852 119.299 41.5788 119.598 41.3777L137.188 30.4848C137.769 30.1113 138.239 30.3655 138.239 31.0502Z" fill="#455A64"/>
<path d="M138.239 35.9C138.214 36.2779 138.105 36.644 137.922 36.9685C137.74 37.293 137.488 37.5667 137.188 37.7674L119.598 48.6603C119.021 49.0182 118.551 48.764 118.551 48.0897C118.577 47.7133 118.685 47.3487 118.867 47.0253C119.049 46.7019 119.299 46.4286 119.598 46.2275L137.188 35.3346C137.769 34.9767 138.239 35.2309 138.239 35.9Z" fill="#455A64"/>
<path d="M138.239 40.7656C138.214 41.1435 138.105 41.5096 137.922 41.8341C137.74 42.1586 137.488 42.4323 137.188 42.633L119.598 53.4999C119.021 53.8579 118.551 53.6037 118.551 52.9294C118.577 52.553 118.685 52.1884 118.867 51.8649C119.049 51.5415 119.299 51.2683 119.598 51.0672L137.188 40.1743C137.769 39.8682 138.239 40.0965 138.239 40.7656Z" fill="#455A64"/>
<path d="M118.551 57.8C118.551 58.4691 119.035 58.7233 119.598 58.3654L121.439 57.2294C121.738 57.0283 121.988 56.7551 122.17 56.4316C122.352 56.1082 122.46 55.7436 122.486 55.3672C122.486 54.6929 122.002 54.4387 121.439 54.7966L119.598 55.9326C119.298 56.1342 119.048 56.4083 118.866 56.7327C118.684 57.057 118.576 57.4227 118.551 57.8Z" fill="#455A64"/>
<path d="M125.152 53.7281C125.152 54.3972 125.637 54.6514 126.204 54.2934L137.188 47.4983C137.488 47.2977 137.74 47.0239 137.922 46.6994C138.105 46.3749 138.214 46.0089 138.239 45.631C138.239 44.9619 137.755 44.7077 137.188 45.0656L126.204 51.8607C125.904 52.0614 125.652 52.3351 125.469 52.6596C125.286 52.9841 125.178 53.3502 125.152 53.7281Z" fill="#455A64"/>
<path d="M118.551 62.6913C118.551 63.3605 119.035 63.6146 119.598 63.2567L121.439 62.1207C121.738 61.9197 121.988 61.6464 122.17 61.323C122.352 60.9996 122.46 60.635 122.486 60.2586C122.486 59.5843 122.002 59.3301 121.439 59.688L119.598 60.824C119.298 61.0256 119.048 61.2996 118.866 61.624C118.684 61.9484 118.576 62.314 118.551 62.6913Z" fill="#455A64"/>
<path d="M125.152 58.5938C125.152 59.2629 125.637 59.5171 126.204 59.1592L137.188 52.3641C137.488 52.1634 137.74 51.8896 137.922 51.5652C138.105 51.2407 138.214 50.8746 138.239 50.4967C138.239 49.8276 137.755 49.5734 137.188 49.9313L126.204 56.7264C125.904 56.9271 125.652 57.2008 125.469 57.5253C125.286 57.8498 125.178 58.2159 125.152 58.5938Z" fill="#455A64"/>
<path d="M118.551 67.5309C118.551 68.2001 119.035 68.4542 119.598 68.0963L121.439 66.9604C121.738 66.7593 121.988 66.486 122.17 66.1626C122.352 65.8392 122.46 65.4746 122.486 65.0982C122.486 64.4239 122.002 64.1697 121.439 64.5276L119.598 65.6636C119.298 65.8652 119.048 66.1392 118.866 66.4636C118.684 66.788 118.576 67.1536 118.551 67.5309Z" fill="#455A64"/>
<path d="M125.152 63.4591C125.152 64.1282 125.637 64.3824 126.204 64.0245L137.188 57.2294C137.487 57.0292 137.739 56.7563 137.921 56.4328C138.104 56.1092 138.213 55.7442 138.239 55.3672C138.239 54.6929 137.755 54.4387 137.188 54.7966L126.204 61.5918C125.904 61.7924 125.652 62.0662 125.469 62.3907C125.286 62.7151 125.178 63.0812 125.152 63.4591Z" fill="#455A64"/>
<path d="M165.451 15.8778L163.512 14.6588C163.369 14.5877 163.211 14.5589 163.054 14.5753C162.897 14.5917 162.747 14.6528 162.62 14.7522L137.561 30.2564C137.195 30.5129 136.89 30.8577 136.671 31.2631C136.452 31.6685 136.325 32.1232 136.301 32.5906V87.8332C136.284 88.0004 136.309 88.1694 136.374 88.3226C136.439 88.4758 136.541 88.6077 136.669 88.7047L138.62 89.9111C138.628 89.9159 138.637 89.9185 138.646 89.9185V89.9185C138.653 89.9185 138.659 89.9199 138.666 89.9225C138.803 89.98 138.952 90.0005 139.098 89.9818C139.248 89.9628 139.391 89.9035 139.514 89.8095L142.507 87.9603C144.09 86.9829 146.13 88.121 146.13 89.9807V89.9807C146.13 90.7328 146.242 91.1685 146.421 91.2879L148.349 92.4898C148.356 92.4942 148.364 92.4964 148.373 92.4964V92.4964C148.38 92.4964 148.388 92.4986 148.395 92.5021C148.617 92.6158 148.938 92.2813 149.291 91.459V91.459C152.351 84.5313 157.429 78.6874 163.861 74.6904L164.54 74.269C164.906 74.0125 165.21 73.6677 165.429 73.2623C165.648 72.8569 165.775 72.4022 165.8 71.9348V16.744C165.817 16.5796 165.794 16.4132 165.733 16.2612C165.672 16.1093 165.575 15.9771 165.451 15.8778Z" fill="#F9E89C"/>
<path opacity="0.4" d="M165.021 15.6139C165.064 15.6406 165.013 15.7901 164.962 15.7972V15.7972C164.816 15.8179 164.676 15.8758 164.554 15.966L139.5 31.4806C139.477 31.4958 139.454 31.5114 139.432 31.5273C138.885 31.9175 138.14 32.1594 137.569 31.8058V31.8058C137.056 31.4878 136.86 30.7976 137.326 30.4139C137.392 30.3597 137.461 30.3089 137.532 30.2617L162.581 14.747C162.749 14.6354 162.941 14.5728 163.139 14.5655C163.254 14.5638 163.367 14.5942 163.468 14.6537L165.021 15.6139Z" fill="white"/>
<path opacity="0.2" d="M146.416 91.3137C146.237 91.1944 146.125 90.7587 146.125 90.0066V86.3011C146.125 85.9604 146.302 85.644 146.591 85.4646V85.4646C147.247 85.0586 148.093 85.53 148.093 86.3011V91.2204V91.2204C148.093 91.3597 147.331 91.8798 147.212 91.8064L146.416 91.3137Z" fill="black"/>
<path opacity="0.1" d="M138.627 89.9289L136.664 88.7151C136.538 88.6176 136.438 88.4862 136.374 88.3342C136.31 88.1821 136.285 88.0147 136.3 87.8489V32.6063C136.303 32.5305 136.308 32.455 136.317 32.3801C136.388 31.7307 137.143 31.5373 137.699 31.8813V31.8813C138.23 32.2102 138.377 32.9071 138.294 33.526C138.28 33.6249 138.272 33.7248 138.268 33.8252V89.0679C138.252 89.2325 138.276 89.3988 138.339 89.5501C138.402 89.7013 138.502 89.832 138.627 89.9289Z" fill="black"/>
<path d="M143.237 34.0378L160.827 23.1449C161.403 22.787 161.874 23.0775 161.874 23.7933V35.7911C161.854 36.1812 161.749 36.5609 161.567 36.8997C161.385 37.2384 161.132 37.5268 160.827 37.7414L143.237 48.6343C142.655 48.9922 142.185 48.7018 142.185 47.986V35.983C142.205 35.593 142.31 35.2136 142.493 34.8756C142.676 34.5376 142.931 34.2505 143.237 34.0378Z" fill="#455A64"/>
<path d="M161.874 40.7345C161.848 41.1118 161.74 41.4774 161.558 41.8018C161.376 42.1262 161.126 42.4003 160.827 42.6019L143.237 53.4688C142.655 53.8267 142.185 53.5726 142.185 52.8983C142.211 52.5213 142.32 52.1562 142.503 51.8327C142.686 51.5092 142.937 51.2363 143.237 51.0361L160.827 40.1691C161.403 39.8112 161.874 40.0654 161.874 40.7345Z" fill="#455A64"/>
<path d="M161.874 45.6001C161.848 45.9774 161.74 46.343 161.558 46.6674C161.376 46.9918 161.126 47.2658 160.827 47.4674L143.237 58.3344C142.655 58.6923 142.185 58.4381 142.185 57.7638C142.211 57.3868 142.32 57.0218 142.503 56.6983C142.686 56.3747 142.937 56.1018 143.237 55.9016L160.827 45.0554C161.403 44.6768 161.874 44.9309 161.874 45.6001Z" fill="#455A64"/>
<path d="M161.874 50.4655C161.846 50.8401 161.737 51.2026 161.555 51.5241C161.373 51.8456 161.124 52.1172 160.827 52.3173L143.237 63.2102C142.655 63.5681 142.185 63.3139 142.185 62.6396C142.211 62.2626 142.32 61.8976 142.503 61.574C142.686 61.2505 142.937 60.9776 143.237 60.7774L160.827 49.9001C161.403 49.5422 161.874 49.7963 161.874 50.4655Z" fill="#455A64"/>
<path d="M161.874 55.331C161.848 55.7083 161.74 56.0739 161.558 56.3983C161.376 56.7227 161.126 56.9968 160.827 57.1983L143.237 68.0913C142.655 68.4492 142.185 68.195 142.185 67.5207C142.211 67.1437 142.32 66.7787 142.503 66.4551C142.686 66.1316 142.937 65.8587 143.237 65.6585L160.827 54.7656C161.403 54.3921 161.874 54.6619 161.874 55.331Z" fill="#455A64"/>
<path d="M142.185 72.3654C142.185 73.0345 142.67 73.2887 143.237 72.9308L145.074 71.7948C145.373 71.5946 145.625 71.3217 145.807 70.9982C145.99 70.6747 146.099 70.3096 146.125 69.9327C146.125 69.2583 145.641 69.0042 145.074 69.3621L143.237 70.4981C142.936 70.6987 142.685 70.9725 142.502 71.297C142.319 71.6214 142.21 71.9875 142.185 72.3654Z" fill="#455A64"/>
<path d="M148.791 68.2935C148.791 68.9626 149.276 69.2168 149.843 68.8589L160.827 62.0638C161.126 61.8622 161.376 61.5881 161.558 61.2637C161.74 60.9394 161.848 60.5737 161.874 60.1964C161.874 59.5273 161.389 59.2731 160.827 59.631L149.838 66.4261C149.539 66.6277 149.289 66.9018 149.107 67.2262C148.925 67.5505 148.817 67.9162 148.791 68.2935Z" fill="#455A64"/>
<path d="M142.185 77.2153C142.185 77.8844 142.67 78.1386 143.237 77.7807L145.074 76.6447C145.373 76.4445 145.625 76.1716 145.807 75.8481C145.99 75.5245 146.099 75.1595 146.125 74.7825C146.125 74.1082 145.641 73.854 145.074 74.2119L143.237 75.3479C142.936 75.5486 142.685 75.8223 142.502 76.1468C142.319 76.4713 142.21 76.8374 142.185 77.2153Z" fill="#455A64"/>
<path d="M148.791 73.159C148.791 73.8281 149.276 74.0823 149.843 73.7244L160.827 66.9293C161.126 66.7277 161.376 66.4536 161.558 66.1292C161.74 65.8048 161.848 65.4392 161.874 65.0619C161.874 64.3928 161.389 64.1386 160.827 64.4965L149.838 71.2916C149.539 71.4932 149.289 71.7673 149.107 72.0916C148.925 72.416 148.817 72.7816 148.791 73.159Z" fill="#455A64"/>
<path d="M142.185 82.0964C142.185 82.7655 142.67 83.0197 143.237 82.6618L145.074 81.5258C145.373 81.3256 145.625 81.0527 145.807 80.7292C145.99 80.4056 146.099 80.0406 146.125 79.6636C146.125 78.9893 145.641 78.7351 145.074 79.093L143.237 80.229C142.936 80.4297 142.685 80.7034 142.502 81.0279C142.319 81.3524 142.21 81.7185 142.185 82.0964Z" fill="#455A64"/>
<path d="M148.791 78.0245C148.791 78.6937 149.276 78.9478 149.843 78.5899L160.827 71.7948C161.125 71.5937 161.375 71.3205 161.557 70.9971C161.739 70.6737 161.847 70.3091 161.874 69.9327C161.874 69.2583 161.389 69.0042 160.827 69.3621L149.838 76.1779C149.542 76.3775 149.293 76.6483 149.111 76.9688C148.929 77.2894 148.82 77.6508 148.791 78.0245Z" fill="#455A64"/>
<path d="M124.716 125.881C124.716 122.665 122.729 119.449 118.754 116.995C110.81 112.083 97.9115 112.083 89.9817 116.995C86.0071 119.449 84.0198 122.665 84.0198 125.881V131.81C84.0198 135.026 86.0071 138.242 89.9817 140.7C97.926 145.607 110.824 145.607 118.754 140.7C122.729 138.242 124.716 135.026 124.716 131.81V125.881ZM90.9656 118.816C94.5137 116.622 99.2735 115.418 104.368 115.418C109.462 115.418 114.222 116.622 117.77 118.816C120.979 120.797 122.748 123.308 122.748 125.881C122.748 128.453 120.979 130.964 117.77 132.946C114.222 135.14 109.448 136.348 104.368 136.348C99.2881 136.348 94.5137 135.14 90.9656 132.946C87.7569 130.964 85.9877 128.453 85.9877 125.881C85.9877 123.308 87.7569 120.787 90.9656 118.816Z" fill="#F9E89C"/>
<path opacity="0.3" d="M89.9769 134.792C97.9261 139.699 110.819 139.699 118.754 134.792C126.689 129.885 126.698 121.923 118.754 117.016C110.81 112.109 97.9115 112.104 89.9769 117.016C82.0422 121.928 82.0325 129.864 89.9769 134.792ZM85.9877 125.901C85.9877 123.308 87.752 120.818 90.9608 118.837C94.5089 116.642 99.2735 115.439 104.368 115.439C109.462 115.439 114.222 116.642 117.77 118.837C120.979 120.818 122.743 123.329 122.743 125.901C122.743 128.474 120.979 130.985 117.77 132.966C114.222 135.14 109.448 136.348 104.368 136.348C99.2881 136.348 94.5089 135.14 90.9608 132.946C87.752 130.964 85.9877 128.453 85.9877 125.881V125.901Z" fill="white"/>
<path d="M85.9878 125.881V125.881C86.003 127.231 87.7175 127.347 88.7099 126.432C89.3544 125.837 90.1085 125.271 90.9657 124.745C94.5089 122.55 99.2736 121.342 104.368 121.342C109.462 121.342 114.222 122.55 117.77 124.745C118.589 125.206 119.347 125.772 120.03 126.428C121.029 127.388 122.732 127.266 122.748 125.881V125.881C122.748 123.287 120.979 120.797 117.77 118.816C114.222 116.627 109.462 115.418 104.368 115.418C99.2736 115.418 94.5089 116.627 90.9657 118.816C87.7521 120.787 85.9878 123.308 85.9878 125.881Z" fill="#F9E89C"/>
<path opacity="0.1" d="M85.9878 125.881V125.881C86.003 127.231 87.7175 127.347 88.7099 126.432C89.3544 125.837 90.1085 125.271 90.9657 124.745C94.5089 122.55 99.2736 121.342 104.368 121.342C109.462 121.342 114.222 122.55 117.77 124.745C118.589 125.206 119.347 125.772 120.03 126.428C121.029 127.388 122.732 127.266 122.748 125.881V125.881C122.748 123.287 120.979 120.797 117.77 118.816C114.222 116.627 109.462 115.418 104.368 115.418C99.2736 115.418 94.5089 116.627 90.9657 118.816C87.7521 120.787 85.9878 123.308 85.9878 125.881Z" fill="black"/>
<path opacity="0.4" d="M90.9608 121.498C94.5088 119.309 99.2735 118.1 104.368 118.1C109.462 118.1 114.222 119.309 117.77 121.498V121.498C122.047 124.146 122.062 130.285 117.77 132.909V132.909C114.222 135.14 109.448 136.348 104.368 136.348C99.288 136.348 94.5088 135.14 90.9608 132.946V132.946C86.6831 130.305 86.6868 124.145 90.9608 121.498V121.498Z" fill="white"/>
<path opacity="0.1" d="M97.0462 137.633C98.4782 137.975 99.5741 139.201 99.5741 140.674V140.674C99.5741 142.449 98.0039 143.83 96.2909 143.364C94.0949 142.768 91.9744 141.874 89.9818 140.7C86.0072 138.242 84.0199 135.026 84.0199 131.81V125.881C84.0214 125.225 84.1029 124.573 84.2622 123.941C83.2928 127.769 85.2025 131.82 89.9769 134.771C92.1985 136.081 94.5792 137.043 97.0462 137.633Z" fill="black"/>
<path d="M90.5828 138.542C90.558 138.013 90.4169 137.498 90.171 137.039C89.925 136.579 89.5812 136.188 89.1674 135.897C89.0245 135.785 88.8564 135.715 88.6802 135.695C88.5039 135.675 88.3259 135.705 88.1641 135.783L81.3346 139.979C81.1879 140.086 81.0714 140.234 80.9979 140.407C80.9244 140.58 80.8967 140.771 80.9177 140.96C80.9389 141.487 81.0754 142.001 81.3161 142.462C81.5569 142.922 81.8953 143.315 82.304 143.61C82.4477 143.723 82.6169 143.793 82.7942 143.812C82.9715 143.831 83.1503 143.799 83.3122 143.719L90.1611 139.538C90.3079 139.428 90.4244 139.277 90.4986 139.102C90.5727 138.927 90.6018 138.734 90.5828 138.542Z" fill="#37474F"/>
<path d="M90.1611 139.535C90.1611 139.534 90.1618 139.532 90.163 139.532C90.3082 139.421 90.4235 139.272 90.4972 139.099C90.5713 138.925 90.6009 138.733 90.5828 138.542V138.542C90.5734 137.926 89.8711 137.691 89.3448 138.013L82.48 142.212C81.949 142.537 81.7861 143.265 82.304 143.61V143.61C82.4476 143.723 82.6169 143.792 82.7942 143.812C82.9715 143.831 83.1503 143.799 83.3121 143.719L90.1587 139.54C90.1602 139.539 90.1611 139.537 90.1611 139.535V139.535Z" fill="#263238"/>
<path d="M83.4575 143.61C83.426 142.921 83.2428 142.249 82.9227 141.649C82.6026 141.05 82.1548 140.54 81.6156 140.161C81.4316 140.017 81.2158 139.928 80.9897 139.902C80.7635 139.875 80.5348 139.913 80.3263 140.01L60.5529 151.297C58.9115 152.234 58.3101 154.305 59.1941 155.975V155.975C60.162 157.804 62.4964 158.399 64.2215 157.256L82.9292 144.865C83.1118 144.724 83.2567 144.533 83.3494 144.313C83.4421 144.093 83.4793 143.851 83.4575 143.61Z" fill="#F9E89C"/>
<path opacity="0.1" d="M60.0298 157.58C60.5365 158.545 61.7667 158.861 62.6757 158.259L82.9049 144.86C83.095 144.719 83.2461 144.525 83.3424 144.3C83.4388 144.075 83.4768 143.826 83.4527 143.579V143.579C83.4076 142.375 82.001 142.02 80.9751 142.652L60.6935 155.158C59.8704 155.666 59.5804 156.724 60.0298 157.58V157.58Z" fill="black"/>
<path d="M59.2658 159.172C58.5578 158.675 57.9693 158.006 57.5482 157.22C57.1271 156.434 56.8852 155.553 56.8423 154.648C56.8423 152.989 57.9377 152.319 59.2658 153.154C59.9737 153.65 60.5622 154.318 60.9834 155.103C61.4045 155.888 61.6464 156.768 61.6894 157.672C61.6991 159.358 60.6085 160.027 59.2658 159.172Z" fill="#F9E89C"/>
<g opacity="0.2">
<path d="M59.2658 159.172C58.5578 158.675 57.9693 158.006 57.5482 157.22C57.1271 156.434 56.8852 155.553 56.8423 154.648C56.8423 152.989 57.9377 152.319 59.2658 153.154C59.9737 153.65 60.5622 154.318 60.9834 155.103C61.4045 155.888 61.6464 156.768 61.6894 157.672C61.6991 159.358 60.6085 160.027 59.2658 159.172Z" fill="black"/>
</g>
</svg>
